<?xml version="1.0" encoding="UTF-8"?>
<svg width="122px" height="76px" viewBox="0 0 122 76" version="1.1" xmlns="http://www.w3.org/2000/svg" xmlns:xlink="http://www.w3.org/1999/xlink">
    <title>bug4 6</title>
    <g id="Design" stroke="none" stroke-width="1" fill="none" fill-rule="evenodd">
        <g id="Tablet" transform="translate(-27.000000, -1718.000000)">
            <g id="bug4-6" transform="translate(27.000000, 1719.000000)">
                <path d="M64,37.7598515 C64,37.7598515 61.8017951,5.01966522 39.2530803,0.334615537 C16.7005624,-4.34675671 52.9367159,41.7057371 64,37.7598515 Z" id="Stroke-83" stroke="#231F20"></path>
                <path d="M59,41.7605117 C59,41.7605117 12.5016416,44.9648585 8.25092203,27.9314192 C4.00020243,10.8979799 55.1104035,29.0571714 59,41.7605117 Z" id="Stroke-85" stroke="#231F20"></path>
                <path d="M47.9281344,59.8161144 C47.9281344,59.8161144 9.25347686,79.4195491 1.37405159,70.8760729 C-6.50913654,62.336292 21.0349862,49.8425667 45.5462451,48.7228984 C45.5462451,48.7228984 52.5,32.8664727 71.1299187,39.1816979 C71.1299187,39.1816979 73.7037138,29.7661368 86.3883091,33.878978 C86.3883091,33.878978 94.647783,23.7576194 102.546023,32.6706231 C110.101842,41.2140992 99.3588816,49.1515503 99.3588816,49.1515503 C99.3588816,49.1515503 121.111965,69.5309928 122,75 C122,75 96.4163264,53.7299962 93.5302141,52.3479633 C93.5302141,52.3479633 89.3985957,58.5745019 83.5962682,58.3638712 C77.7939407,58.1532406 74.5578826,55.1489819 74.5578826,55.1489819 C74.5578826,55.1489819 66.6709316,66.6745451 47.9281344,59.8161144" id="Fill-87" fill="#010202"></path>
                <path d="M89.8377921,41.9544449 C88.9856371,37.8974127 85.0027384,35.3075811 80.9531494,36.1634482 C76.8998553,37.0193153 74.3100449,40.9948364 75.1622,45.0481636 C76.0180601,49.1014908 79.9972537,51.6950274 84.0505478,50.8354553 C88.1001368,49.9832933 90.6899472,46.0077721 89.8377921,41.9544449" id="Fill-89" fill="#FEFEFE"></path>
                <path d="M87.7539139,43.6293279 C87.5459139,42.6653279 86.5979139,42.0453279 85.6299139,42.2453279 C84.6659139,42.4533279 84.0419139,43.4013279 84.2459139,44.3733279 C84.4539139,45.3373279 85.4019139,45.9573279 86.3699139,45.7533279 C87.3379139,45.5453279 87.9579139,44.5973279 87.7539139,43.6293279" id="Fill-91" fill="#010202"></path>
                <path d="M88,35.2774003 C88,35.2774003 94.3729805,38.1650714 92.8649863,46.9709644 C92.8649863,46.9709644 101.344612,47.753042 102.822295,41.1993821 C103.443679,38.4395506 102.390357,35.5706794 100.367068,33.5816455 C97.7299726,30.9910134 93.2211457,28.7312604 88,35.2774003" id="Fill-93" fill="#FEFEFE"></path>
                <path d="M100.752592,38.6319089 C100.544592,37.6639089 99.5965924,37.0439089 98.6285924,37.2479089 C97.6645924,37.4519089 97.0405924,38.3999089 97.2485924,39.3719089 C97.4525924,40.3399089 98.4005924,40.9559089 99.3685924,40.7519089 C100.336592,40.5479089 100.956592,39.5959089 100.752592,38.6319089" id="Fill-95" fill="#010202"></path>
            </g>
        </g>
    </g>
</svg>