<?xml version="1.0" encoding="UTF-8"?>
<svg width="153px" height="92px" viewBox="0 0 153 92" version="1.1" xmlns="http://www.w3.org/2000/svg" xmlns:xlink="http://www.w3.org/1999/xlink">
    <title>Group 3</title>
    <g id="Design" stroke="none" stroke-width="1" fill="none" fill-rule="evenodd">
        <g id="Tablet" transform="translate(-16.000000, -1590.000000)">
            <g id="Group-3" transform="translate(16.000000, 1591.000000)">
                <g id="bug4-6" transform="translate(0.000000, 16.000000)">
                    <path d="M64,37.7598515 C64,37.7598515 61.8017951,5.01966522 39.2530803,0.334615537 C16.7005624,-4.34675671 52.9367159,41.7057371 64,37.7598515 Z" id="Stroke-83" stroke="#231F20"></path>
                    <path d="M59,41.7605117 C59,41.7605117 12.5016416,44.9648585 8.25092203,27.9314192 C4.00020243,10.8979799 55.1104035,29.0571714 59,41.7605117 Z" id="Stroke-85" stroke="#231F20"></path>
                    <path d="M47.9281344,59.8161144 C47.9281344,59.8161144 9.25347686,79.4195491 1.37405159,70.8760729 C-6.50913654,62.336292 21.0349862,49.8425667 45.5462451,48.7228984 C45.5462451,48.7228984 52.5,32.8664727 71.1299187,39.1816979 C71.1299187,39.1816979 73.7037138,29.7661368 86.3883091,33.878978 C86.3883091,33.878978 94.647783,23.7576194 102.546023,32.6706231 C110.101842,41.2140992 99.3588816,49.1515503 99.3588816,49.1515503 C99.3588816,49.1515503 121.111965,69.5309928 122,75 C122,75 96.4163264,53.7299962 93.5302141,52.3479633 C93.5302141,52.3479633 89.3985957,58.5745019 83.5962682,58.3638712 C77.7939407,58.1532406 74.5578826,55.1489819 74.5578826,55.1489819 C74.5578826,55.1489819 66.6709316,66.6745451 47.9281344,59.8161144" id="Fill-87" fill="#010202"></path>
                    <path d="M89.8377921,41.9544449 C88.9856371,37.8974127 85.0027384,35.3075811 80.9531494,36.1634482 C76.8998553,37.0193153 74.3100449,40.9948364 75.1622,45.0481636 C76.0180601,49.1014908 79.9972537,51.6950274 84.0505478,50.8354553 C88.1001368,49.9832933 90.6899472,46.0077721 89.8377921,41.9544449" id="Fill-89" fill="#FEFEFE"></path>
                    <path d="M87.7539139,43.6293279 C87.5459139,42.6653279 86.5979139,42.0453279 85.6299139,42.2453279 C84.6659139,42.4533279 84.0419139,43.4013279 84.2459139,44.3733279 C84.4539139,45.3373279 85.4019139,45.9573279 86.3699139,45.7533279 C87.3379139,45.5453279 87.9579139,44.5973279 87.7539139,43.6293279" id="Fill-91" fill="#010202"></path>
                    <path d="M88,35.2774003 C88,35.2774003 94.3729805,38.1650714 92.8649863,46.9709644 C92.8649863,46.9709644 101.344612,47.753042 102.822295,41.1993821 C103.443679,38.4395506 102.390357,35.5706794 100.367068,33.5816455 C97.7299726,30.9910134 93.2211457,28.7312604 88,35.2774003" id="Fill-93" fill="#FEFEFE"></path>
                    <path d="M100.752592,38.6319089 C100.544592,37.6639089 99.5965924,37.0439089 98.6285924,37.2479089 C97.6645924,37.4519089 97.0405924,38.3999089 97.2485924,39.3719089 C97.4525924,40.3399089 98.4005924,40.9559089 99.3685924,40.7519089 C100.336592,40.5479089 100.956592,39.5959089 100.752592,38.6319089" id="Fill-95" fill="#010202"></path>
                </g>
                <g id="bug4-6" transform="translate(117.000000, 47.000000)">
                    <path d="M19,10.9304833 C19,10.9304833 18.3817549,1.45306098 12.0399288,0.0968623922 C5.69703318,-1.25827168 15.8884514,12.0727134 19,10.9304833 Z" id="Stroke-83" stroke="#231F20"></path>
                    <path d="M17,11.9315748 C17,11.9315748 3.32401224,12.8471024 2.0738006,7.98040549 C0.82358895,3.11370855 15.856001,8.30204896 17,11.9315748 Z" id="Stroke-85" stroke="#231F20"></path>
                    <path d="M14.1427282,17.7089019 C14.1427282,17.7089019 2.73053416,23.249003 0.405457846,20.8345423 C-1.92072882,18.421126 6.20704511,14.8902906 13.4398756,14.5738626 C13.4398756,14.5738626 15.4918054,10.0926988 20.9891563,11.8774364 C20.9891563,11.8774364 21.7486368,9.21651692 25.4916322,10.3788416 C25.4916322,10.3788416 27.928854,7.51845765 30.2594821,10.03735 C32.4890682,12.4518107 29.3190143,14.6950033 29.3190143,14.6950033 C29.3190143,14.6950033 35.737957,20.454411 36,22 C36,22 28.4507193,15.988912 27.5990796,15.5983374 C27.5990796,15.5983374 26.3799135,17.3580114 24.6677513,17.2984854 C22.9555891,17.2389593 22.0006867,16.3899297 22.0006867,16.3899297 C22.0006867,16.3899297 19.6733897,19.647154 14.1427282,17.7089019" id="Fill-87" fill="#010202"></path>
                    <path d="M25.9567446,12.587852 C25.7295032,11.5059767 24.6673969,10.815355 23.5875065,11.0435862 C22.5066281,11.2718174 21.816012,12.3319564 22.0432533,13.4128436 C22.2714827,14.4937309 23.332601,15.1853406 24.4134794,14.9561214 C25.4933698,14.7288782 26.1839859,13.6687392 25.9567446,12.587852" id="Fill-89" fill="#FEFEFE"></path>
                    <path d="M25.9384785,12.407332 C25.8864785,12.166332 25.6494785,12.011332 25.4074785,12.061332 C25.1664785,12.113332 25.0104785,12.350332 25.0614785,12.593332 C25.1134785,12.834332 25.3504785,12.989332 25.5924785,12.938332 C25.8344785,12.886332 25.9894785,12.649332 25.9384785,12.407332" id="Fill-91" fill="#010202"></path>
                    <path d="M26,10.3366876 C26,10.3366876 27.6994615,11.2390848 27.2973297,13.9909264 C27.2973297,13.9909264 29.5585632,14.2353256 29.9526119,12.1873069 C30.1183145,11.3248595 29.8374284,10.4283373 29.2978848,9.80676421 C28.5946594,8.99719169 27.3923055,8.29101886 26,10.3366876" id="Fill-93" fill="#FEFEFE"></path>
                    <path d="M29.9381481,11.4079772 C29.8861481,11.1659772 29.6491481,11.0109772 29.4071481,11.0619772 C29.1661481,11.1129772 29.0101481,11.3499772 29.0621481,11.5929772 C29.1131481,11.8349772 29.3501481,11.9889772 29.5921481,11.9379772 C29.8341481,11.8869772 29.9891481,11.6489772 29.9381481,11.4079772" id="Fill-95" fill="#010202"></path>
                </g>
                <g id="bug4-6" transform="translate(77.000000, 0.000000)">
                    <path d="M32,18.8799257 C32,18.8799257 30.9008975,2.50983261 19.6265402,0.167307768 C8.35028121,-2.17337835 26.468358,20.8528686 32,18.8799257 Z" id="Stroke-83" stroke="#231F20"></path>
                    <path d="M30,20.8745538 C30,20.8745538 6.29495455,22.5530211 4.12792103,13.6307434 C1.96088751,4.70846568 28.0170684,14.2204231 30,20.8745538 Z" id="Stroke-85" stroke="#231F20"></path>
                    <path d="M24.3569208,30.4080572 C24.3569208,30.4080572 4.7025866,40.2097745 0.698288513,35.9380365 C-3.30792185,31.668146 10.689911,25.4212834 23.1464524,24.8614492 C23.1464524,24.8614492 26.6803316,16.9332363 36.1479915,20.0908489 C36.1479915,20.0908489 37.4559857,15.3830684 43.9022554,17.439489 C43.9022554,17.439489 48.099693,12.3788097 52.1135525,16.8353115 C55.9533951,21.1070496 50.4938579,25.0757751 50.4938579,25.0757751 C50.4938579,25.0757751 61.5487037,35.2654964 62,38 C62,38 48.998461,27.3649981 47.5317482,26.6739816 C47.5317482,26.6739816 45.4320732,29.787251 42.4833494,29.6819356 C39.5346256,29.5766203 37.8900715,28.0744909 37.8900715,28.0744909 C37.8900715,28.0744909 33.8819489,33.8372725 24.3569208,30.4080572" id="Fill-87" fill="#010202"></path>
                    <path d="M45.9134891,21.175704 C45.4590064,19.0119534 43.3347938,17.6307099 41.175013,18.0871724 C39.0132562,18.5436348 37.632024,20.6639127 38.0865067,22.8256873 C38.5429654,24.9874618 40.665202,26.3706813 42.8269588,25.9122428 C44.9867396,25.4577564 46.3679718,23.3374785 45.9134891,21.175704" id="Fill-89" fill="#FEFEFE"></path>
                    <path d="M44.876957,21.814664 C44.772957,21.332664 44.298957,21.022664 43.814957,21.122664 C43.332957,21.226664 43.020957,21.700664 43.122957,22.186664 C43.226957,22.668664 43.700957,22.978664 44.184957,22.876664 C44.668957,22.772664 44.978957,22.298664 44.876957,21.814664" id="Fill-91" fill="#010202"></path>
                    <path d="M45,18.1387001 C45,18.1387001 48.3989229,19.5825357 47.5946594,23.9854822 C47.5946594,23.9854822 52.1171264,24.376521 52.9052239,21.099691 C53.2366289,19.7197753 52.6748569,18.2853397 51.5957696,17.2908227 C50.1893187,15.9955067 47.7846111,14.8656302 45,18.1387001" id="Fill-93" fill="#FEFEFE"></path>
                    <path d="M50.8762962,19.8159545 C50.7722962,19.3319545 50.2982962,19.0219545 49.8142962,19.1239545 C49.3322962,19.2259545 49.0202962,19.6999545 49.1242962,20.1859545 C49.2262962,20.6699545 49.7002962,20.9779545 50.1842962,20.8759545 C50.6682962,20.7739545 50.9782962,20.2979545 50.8762962,19.8159545" id="Fill-95" fill="#010202"></path>
                </g>
            </g>
        </g>
    </g>
</svg>