<?xml version="1.0" encoding="UTF-8"?>
<svg width="156px" height="105px" viewBox="0 0 156 105" version="1.1" xmlns="http://www.w3.org/2000/svg" xmlns:xlink="http://www.w3.org/1999/xlink">
    <title>Group 42</title>
    <g id="Design" stroke="none" stroke-width="1" fill="none" fill-rule="evenodd">
        <g id="Tablet" transform="translate(-600.000000, -1101.000000)">
            <g id="Group-42" transform="translate(600.000000, 1102.000000)">
                <g id="Group-21">
                    <path d="M153.894269,0.478342236 C155.916008,1.39638571 154.709383,4.38402547 150.271184,9.43806273 C146.330398,14.914336 144.360004,18.5097398 144.360004,20.2306714 L144.218803,20.2786528 C143.885056,19.3350193 143.419414,18.797628 142.819631,18.6600814 L142.829259,18.624895 C144.494787,16.5105161 146.096133,13.580454 147.639714,9.83150994 C149.953482,4.21129255 150.858451,-0.90032236 153.894269,0.478342236 M150.377085,6.69672733 C150.377085,6.69672733 153.126971,4.40321801 153.505967,3.5107646 C153.884642,2.61831118 153.505967,2.00414969 152.610625,2.00414969 C151.718493,2.00414969 150.377085,6.69672733 150.377085,6.69672733" id="Fill-1" fill="#404042"></path>
                    <path d="M5.48250725,20.3649873 C4.98188613,20.3106084 4.52298344,20.4289624 4.09938095,20.7168506 C3.79772464,20.7456394 3.53457764,20.8288071 3.30352174,20.9695525 L3.30031263,20.9599562 C1.51604762,18.4329376 0.514805383,16.3665401 0.299795031,14.7639624 C-0.021115942,12.4096767 3.61159627,17.9499252 5.48250725,20.3649873" id="Fill-3" fill="#404042"></path>
                    <path d="M136.199046,38.9049553 C115.253186,80.4664149 91.9585797,101.642191 69.4720269,102.768154 C65.9034969,102.419489 62.2486418,101.520639 58.0832174,100.042812 C81.5767888,101.290328 107.615826,80.9110422 136.199046,38.9049553" id="Fill-5" fill="#86323C"></path>
                    <path d="M40.3559027,81.5732491 C43.7736046,80.9782801 47.412735,80.0471217 51.2765031,78.7807335 C53.1056957,78.1793671 54.986234,77.5044292 56.918118,76.7527211 C58.1889255,76.2601124 59.4821967,75.7323174 60.7979317,75.1725348 C62.1265031,74.6063547 63.4775383,74.008187 64.8510373,73.3716342 C68.4612857,71.7114789 72.2223623,69.8178143 76.1374762,67.6938391 C77.944205,66.8909509 94.6251573,58.8652677 108.960251,48.126718 C123.879402,36.9505783 137.271017,22.8536528 139.270292,20.7168826 C140.746803,19.1430938 141.927435,18.4553609 142.819888,18.6600814 C143.419671,18.797628 143.884992,19.3350193 144.218739,20.2786528 C144.270085,20.4161994 144.315012,20.5633422 144.35994,20.7168826 C144.083957,39.3368516 141.549081,51.4409509 136.75435,57.0323795 C129.562735,65.412805 126.485199,85.9907335 101.980437,95.3247087 C87.0356128,101.018498 78.5218447,103.657473 69.4721553,102.768218 C91.9583872,101.642255 115.253315,80.4664789 136.199174,38.9050193 C107.615634,80.9111062 81.5769172,101.290392 58.0830248,100.042876 C55.4932733,99.1280317 52.707766,97.9892739 49.6206025,96.6202056 C46.4018654,95.1903609 43.5008302,93.8180938 40.8757785,92.4778143 C73.7466894,94.1923484 106.72671,71.1836839 139.812631,23.4550193 C105.991824,66.5995441 71.189029,88.5561373 35.4074555,89.3270379 L35.3368551,89.4485907 C30.9660476,86.8799882 27.5387184,84.3561683 24.7307474,81.6948019 C28.549588,82.484895 32.8241222,82.5840565 37.5543499,81.9922863 C38.4689462,81.8803298 39.4027971,81.7395845 40.3559027,81.5732491" id="Fill-7" fill="#AF3C45"></path>
                    <path d="M139.81276,23.4550193 C106.726518,71.183364 73.7468178,94.1923484 40.8759068,92.4778143 C38.8731014,91.4542118 37.0342816,90.4466031 35.3366625,89.4485907 L35.4075839,89.3270379 C71.1891573,88.5561373 105.991631,66.5995441 139.81276,23.4550193" id="Fill-9" fill="#86323C"></path>
                    <path d="M5.48250725,20.3649873 C6.820706,20.5057326 8.4348882,21.8843972 10.3154265,24.4945835 C12.0611822,26.9224407 23.812942,37.0081239 37.499795,46.4668506 C54.1069379,57.9439935 74.3275383,68.4998941 76.1374762,67.6938071 C72.2223623,69.8177823 68.4612857,71.7114469 64.8510373,73.3716022 C61.1605611,71.4235587 45.8884079,59.0123786 17.5519689,35.2871922 L16.8652195,35.8885587 C13.4539358,32.014863 9.84368737,27.8724717 6.02163768,23.4549873 C32.5000021,57.5793351 46.594412,75.1469127 51.2765031,78.7807016 C47.412735,80.0474096 43.7736046,80.9782481 40.3559027,81.5732171 C30.1605611,72.4471612 20.0614928,56.1270991 6.66025052,29.439863 C15.5173934,53.4721301 24.6120104,69.8209811 37.5543499,81.9922543 C32.8241222,82.5840245 28.549588,82.484863 24.7307474,81.6947699 C20.8894431,78.0545835 18.2130455,74.1552978 15.8832319,69.5234966 C10.3154265,58.4717885 3.60838716,33.1312295 2.4980352,27.063186 C1.87867702,23.6852978 2.14824224,21.6540866 3.30352174,20.9695525 C3.53457764,20.8288071 3.79772464,20.7456394 4.09938095,20.7168506 C4.52298344,20.4289624 4.98188613,20.3106084 5.48250725,20.3649873" id="Fill-11" fill="#D65A75"></path>
                    <path d="M64.8510373,73.3717301 C63.4775383,74.007963 62.1265031,74.6061307 60.7979317,75.1726307 C51.1417205,69.0914724 37.2976211,56.1620935 17.5519689,35.2870003 C45.8884079,59.0121866 61.1605611,71.4233668 64.8510373,73.3717301" id="Fill-13" fill="#B24759"></path>
                    <path d="M60.7979638,75.1725988 C59.4822288,75.7323814 58.1889576,76.2598565 56.9181501,76.7524652 L56.8988954,76.7048037 C48.9820217,70.9819062 36.1134917,57.7297727 16.8652516,35.8883348 L17.552001,35.2872882 C37.2976532,56.1620615 51.1417526,69.0914404 60.7979638,75.1725988" id="Fill-15" fill="#D65A75"></path>
                    <path d="M56.8989275,76.7048037 L56.9181822,76.7524652 C54.9862981,77.5044932 53.1057598,78.1791112 51.2765673,78.7804776 C46.5944762,75.1470087 32.5000663,57.5794311 6.02170186,23.4550832 C9.84375155,27.8725677 13.454,32.014959 16.8652836,35.8883348 C36.1135238,57.7297727 48.9820538,70.9819062 56.8989275,76.7048037" id="Fill-17" fill="#B24759"></path>
                    <path d="M40.3559027,81.5732491 C39.4027971,81.7395845 38.4689462,81.8803298 37.5543499,81.9922863 C24.6120104,69.821013 15.5173934,53.4721621 6.66025052,29.439895 C20.0614928,56.1271311 30.1605611,72.4471932 40.3559027,81.5732491" id="Fill-19" fill="#B24759"></path>
                </g>
                <path d="M3.1278013,20.336045 C3.35855544,20.1958212 3.62135877,20.1129617 3.92262112,20.0842795 C4.34567038,19.7974581 4.80397375,19.6795426 5.30394105,19.73372 C6.64039212,19.8739438 8.2524662,21.2474997 10.1305485,23.8480139 C11.8740243,26.2668746 23.6104363,36.315185 37.2794143,45.7388621 C53.8648682,57.173476 74.0590606,67.6902614 75.8666347,66.8871614 C77.6710039,66.0872483 94.330171,58.0913045 108.646543,47.3925469 C123.546209,36.2578207 136.920335,22.2131319 138.916999,20.0842795 C140.391582,18.5163224 141.570672,17.8311379 142.461639,18.0350998 C143.060959,18.1721367 143.525672,18.7075367 143.858984,19.6476736 C143.910262,19.7847105 143.955131,19.9313081 144,20.0842795 C143.724377,38.6352516 141.192812,50.6944988 136.404343,56.2652082 C129.22212,64.6145797 126.148603,85.1162561 101.675844,94.4156439 C86.7505384,100.088334 78.2478892,102.717531 69.2100187,101.831571 C65.6461492,101.484198 61.9957468,100.588678 57.8357624,99.1163282 C55.2493931,98.2048735 52.4675237,97.0703355 49.384392,95.7063403 C46.1698586,94.2817939 43.2726121,92.9146118 40.6509887,91.5792987 C38.6511195,90.5594892 36.8147011,89.5556143 35.1192991,88.5613 C30.7542,86.0022156 27.3313468,83.4877478 24.527043,80.8362431 C20.6907554,77.2095456 18.0178533,73.3247088 15.6910824,68.7100709 C10.1305485,57.6993153 3.43226857,32.4526565 2.32336672,26.4070984 C1.70481742,23.0417271 1.97403059,21.0180426 3.1278013,20.336045 Z" id="Stroke-22" stroke="#231F20" stroke-width="2"></path>
                <path d="M77.5,65.8119528 C73.5684184,67.9824612 69.2915221,71.1056605 65.6660882,72.8021874 C64.2868121,73.4523592 62.9300942,74.0636319 61.5959346,74.6425431 C60.2746653,75.2145898 58.9759544,75.7536212 57.6994794,76.2570222 C55.7597918,77.025526 53.8710213,77.7149239 52.0344571,78.3294655 C48.1544373,79.6239253 44.4996777,80.5751571 41.0679227,81.1834879 C40.1108081,81.3531406 39.1730293,81.4972963 38.254586,81.6113788 C33.5044621,82.2164407 29.2116262,82.1147798 25.3770451,81.3077037 C25.2510412,81.284495 25.1256817,81.2583443 25,81.2289247" id="Stroke-24" stroke="#231F20" stroke-width="2"></path>
                <path d="M41,80.5770993 L40.9967622,80.5738736 C30.7103133,71.3707038 20.520998,54.9127394 7,28 C15.9362918,52.2356589 25.1121798,68.7223328 38.1701743,80.9964516 L38.1734121,81" id="Stroke-26" stroke="#231F20"></path>
                <path d="M58,75.9365341 C50.0640217,70.2472956 37.164438,57.073104 17.869749,35.3601258 C14.4502334,31.5095312 10.8312729,27.3915032 7,23 C33.5422606,56.9236466 47.6706825,74.3879012 52.3640722,78" id="Stroke-28" stroke="#231F20"></path>
                <path d="M65,73.1971289 C65,73.1971289 64.9967436,73.1971289 64.9967436,73.1939209 C61.2518318,71.2399551 45.7544098,58.7934077 17,35 C37.0369064,55.9347983 51.0852103,68.9013554 60.8838535,75" id="Stroke-30" stroke="#231F20"></path>
                <path d="M3.84146028,20 C2.16293149,17.3857318 1.22102325,15.2479885 1.01875449,13.5900791 C0.716860826,11.1545078 4.13429714,16.8860426 5.89433722,19.3844888 C5.93056446,19.4341268 5.9667917,19.4837648 6,19.5334028" id="Stroke-32" stroke="#231F20"></path>
                <path d="M143,18.3925939 C144.663511,16.2760691 146.263238,13.3430332 147.804629,9.59028416 C150.115595,3.96436269 151.019789,-1.15244011 154.051609,0.22762372 C156.0709,1.14659894 154.866057,4.13727092 150.432912,9.19643764 C146.496898,14.6782689 144.529212,18.2773217 144.529212,20" id="Stroke-34" stroke="#231F20"></path>
                <path d="M40.2073523,91.8981939 C40.2872687,91.9013874 40.3671851,91.9077746 40.4471015,91.9109682 C73.1904469,93.6227245 106.042479,70.6513373 139,23 C105.310444,66.0749439 70.6427122,87.9956448 35,88.7652965" id="Stroke-36" stroke="#231F20"></path>
                <path d="M69.3776026,102 L69.3968215,102 C91.8413207,100.871625 115.093015,79.6504884 136,38 C107.469508,80.0960681 81.4791179,100.519008 58.0288284,99.2688204 L58,99.2688204" id="Stroke-38" stroke="#231F20"></path>
                <path d="M152.72808,2 C151.638416,2 150,6 150,6 C150,6 153.358753,4.04498978 153.821664,3.28425358 C154.284184,2.52351738 153.821664,2 152.72808,2 Z" id="Stroke-40" stroke="#231F20"></path>
            </g>
        </g>
    </g>
</svg>