<?xml version="1.0" encoding="UTF-8"?>
<svg width="124px" height="107px" viewBox="0 0 124 107" version="1.1" xmlns="http://www.w3.org/2000/svg" xmlns:xlink="http://www.w3.org/1999/xlink">
    <title>Group 2</title>
    <g id="Design" stroke="none" stroke-width="1" fill="none" fill-rule="evenodd">
        <g id="Tablet" transform="translate(-162.000000, -2388.000000)" fill="#067C13" stroke="#000000">
            <g id="Group-2" transform="translate(163.000000, 2390.000000)">
                <path d="M54.7086031,7 L69.6250416,7.78390729 C69.5402733,9.92471918 69.4600731,12.0072899 69.3844409,14.0316193 C73.8148162,14.1255873 78.6511111,14.449846 83.8922208,15.0027577 L83.8922208,15.0027577 L83.8922208,31.6018454 C78.1935174,30.2594291 73.188636,29.3599164 68.8775763,28.9033073 C68.6120614,37.8189628 68.4682602,45.161129 68.447823,50.9304607 C83.8010459,57.5245686 90.5518631,66.8434597 88.7014297,78.8862717 C87.5888183,86.1272619 81.6605524,90.9278514 70.916632,93.2880401 C71.7280983,99.8580683 72.4141803,103 72.4141803,103 C72.4141803,103 67.204205,102.726199 56.7842545,102.178597 C57.1247311,99.7770095 57.4228354,97.3435997 57.6785674,94.8783671 C52.2785321,95.1182604 46.1794801,95.0037139 39.3801615,94.5342975 L39.3801615,94.5342975 L39.3801615,73.7740139 C46.6529692,77.1928143 53.0884294,79.3353359 58.6865421,80.2015788 C58.8657591,75.1656462 58.8836979,70.0094992 58.7412676,64.7329109 C58.6897431,62.8240917 58.5957031,60.5385454 58.4591476,57.8762721 C57.078041,57.2662048 55.6032364,56.6218741 54.0347664,55.9423969 C52.8914325,55.3723657 52.0358306,54.9166771 51.4679605,54.5753312 C42.0359697,48.9057745 33,45.1519356 33,33.0106219 C33,22.6838778 40.4485433,16.5643202 55.34563,14.6519492 C55.142441,12.181598 54.930029,9.63073467 54.7086031,7 Z M68.6417418,62.546279 L68.6449203,62.6671171 C68.8859255,69.3204975 69.2290801,75.1067319 69.6112967,80.0580202 C70.8644382,79.7716275 72.0484963,79.3812666 73.1639054,78.8862717 C78.3546965,76.5827086 78.8416708,69.0826091 73.1639054,65.0160448 C72.40837,64.4749105 70.9009821,63.6516553 68.6417418,62.546279 Z M56.5061811,29.1397615 L56.4762909,29.1454956 C53.3749189,29.8349455 51.2117818,31.1233209 49.9868798,33.0106219 C47.2833091,37.1762214 49.8663575,41.4929151 57.7360249,45.9607031 C57.4048789,41.048687 56.9947581,35.4418218 56.5061811,29.1397615 Z" id="Combined-Shape" stroke-width="3"></path>
                <path d="M104.854302,7.60280727e-13 L112.312521,0.391953646 C112.263131,1.63930074 112.216842,2.84710407 112.173655,4.01536364 C114.393974,4.06112957 116.818275,4.22138764 119.44611,4.49518899 L119.44611,4.49518899 L119.44611,12.6922693 C116.591365,12.0280928 114.084845,11.5834629 111.92655,11.3583797 C111.797578,15.7729864 111.729443,19.3991051 111.723126,22.2370675 C119.400455,25.4935214 122.775941,30.0954757 121.850715,36.0426033 C121.294424,39.6183085 118.33043,41.9889398 112.958733,43.1544973 C113.364808,46.4325073 113.707091,48 113.707091,48 C113.707091,48 111.102103,47.8630994 105.892128,47.5892983 C106.062302,46.3889546 106.211306,45.1727114 106.33914,43.9405688 C103.638737,44.0583904 100.589445,44.0018139 97.1900807,43.7700234 L97.1900807,43.7700234 L97.1900807,33.5180316 C100.824841,35.205565 104.041306,36.2634069 106.839476,36.6915573 C106.932654,34.1443879 106.9427,31.5362554 106.870634,28.8664555 C106.846394,27.968442 106.803334,26.9036681 106.741455,25.6721338 C106.048147,25.3699654 105.306472,25.049916 104.517383,24.7122948 C103.945716,24.4307979 103.517915,24.2057665 103.23398,24.0372006 C98.5179849,21.2374195 94,19.3836719 94,13.3879614 C94,8.27913957 97.7377142,5.2554398 105.213143,4.31686208 C105.099447,2.9300195 104.979768,1.49065404 104.854302,7.60280727e-13 Z M111.828047,27.9769394 L111.833653,28.1374146 C111.954972,31.3768 112.12457,34.1989182 112.312618,36.6189957 C112.936622,36.4783817 113.526322,36.2861363 114.081953,36.0426033 C116.677348,34.9050413 116.920835,31.2012885 114.081953,29.1931085 C113.704986,28.926448 112.953684,28.5210583 111.828047,27.9769394 Z M105.78409,11.4705967 L105.626666,11.5044306 C104.135515,11.8506156 103.091107,12.4784592 102.49344,13.3879614 C101.139333,15.4485811 102.437624,17.5840719 106.388313,19.7944336 C106.226942,17.3683974 106.025148,14.5934559 105.78409,11.4705967 Z" id="Combined-Shape" stroke-width="2"></path>
                <path d="M10.8543018,53 L18.3125213,53.3919536 C18.2631309,54.6393007 18.2168421,55.8471041 18.1736549,57.0153636 C20.3939739,57.0611296 22.8182754,57.2213876 25.4461104,57.495189 L25.4461104,57.495189 L25.4461104,65.6922693 C22.5913648,65.0280928 20.0848448,64.5834629 17.9265504,64.3583797 C17.7975783,68.7729864 17.7294431,72.3991051 17.7231264,75.2370675 C25.4004549,78.4935214 28.7759409,83.0954757 27.8507149,89.0426033 C27.2944235,92.6183085 24.3304295,94.9889398 18.9587328,96.1544973 C19.364808,99.4325073 19.7070906,101 19.7070906,101 C19.7070906,101 17.1021029,100.863099 11.8921276,100.589298 C12.0623021,99.3889546 12.2113063,98.1727114 12.3391403,96.9405688 C9.63873698,97.0583904 6.58944517,97.0018139 3.19008074,96.7700234 L3.19008074,96.7700234 L3.19008074,86.5180316 C6.82484112,88.205565 10.0413061,89.2634069 12.8394756,89.6915573 C12.9326542,87.1443879 12.9426997,84.5362554 12.8706341,81.8664555 C12.8463942,80.968442 12.8033345,79.9036681 12.7414551,78.6721338 C12.0481474,78.3699654 11.3064724,78.049916 10.5173832,77.7122948 C9.94571626,77.4307979 9.51791528,77.2057665 9.23398024,77.0372006 C4.51798487,74.2374195 8.8817842e-15,72.3836719 8.8817842e-15,66.3879614 C8.8817842e-15,61.2791396 3.73771422,58.2554398 11.2131427,57.3168621 C11.0994469,55.9300195 10.9797685,54.490654 10.8543018,53 Z M17.8280471,80.9769394 L17.8336534,81.1374146 C17.9549716,84.3768 18.1245704,87.1989182 18.3126181,89.6189957 C18.9366216,89.4783817 19.526322,89.2861363 20.0819527,89.0426033 C22.6773482,87.9050413 22.9208354,84.2012885 20.0819527,82.1931085 C19.7049855,81.926448 18.9536837,81.5210583 17.8280471,80.9769394 Z M11.7840902,64.4705967 L11.6266663,64.5044306 C10.1355153,64.8506156 9.09110652,65.4784592 8.49343989,66.3879614 C7.13933254,68.4485811 8.43762357,70.5840719 12.388313,72.7944336 C12.2269419,70.3683974 12.0251482,67.5934559 11.7840902,64.4705967 Z" id="Combined-Shape" stroke-width="2"></path>
            </g>
        </g>
    </g>
</svg>