<?xml version="1.0" encoding="UTF-8"?>
<svg width="123px" height="131px" viewBox="0 0 123 131" version="1.1" xmlns="http://www.w3.org/2000/svg" xmlns:xlink="http://www.w3.org/1999/xlink">
    <title>Group 2</title>
    <g id="Design" stroke="none" stroke-width="1" fill="none" fill-rule="evenodd">
        <g id="Tablet" transform="translate(-635.000000, -1383.000000)">
            <g id="Group-2" transform="translate(696.500000, 1448.500000) rotate(18.000000) translate(-696.500000, -1448.500000) translate(652.000000, 1397.000000)">
                <path d="M0,61.4882982 C2.34363425,74.472944 3.90117515,82.0794232 4.6726227,84.307736 C5.82979403,87.6502051 13.8338684,96.318561 24.1725845,99.7018145 C34.5113007,103.085068 44.2937084,105.31713 53.4770332,98.9307292 C59.5992498,94.6731289 62.6784582,88.0417955 62.7146583,79.036729 C64.1763773,70.5649621 67.5547855,63.4529717 72.8498831,57.700758 C80.7925294,49.0724374 85.7852732,47.0952428 87.1773343,42.4192497 C88.105375,39.301921 88.7129303,30.8288377 89,17" id="Path-5" stroke="#000000" stroke-width="2" fill="#C78D30"></path>
                <path d="M15.408601,40.1778344 C23.2175025,35.4838665 29.3646546,27.6964566 33.8500574,16.8156048 C37.5357775,7.87465211 38.1873191,4.3284129 43.025955,2.08526705 C47.0200155,0.233658352 53.5449527,-1.49284239 69.8210677,2.08526705 C82.7861311,4.93548134 87.4478424,9.95897797 88.6837551,14.186129 C90.8790149,21.6945032 81.0079017,28.6533746 78.6933485,30.452052 C75.0757215,33.2633695 64.8278835,44.5601243 62.9306503,60.5998254 C61.0334171,76.6395264 44.7764674,81 39.9790696,81 C35.1816717,81 23.4872738,80.4729101 14.921304,75.2246513 C6.35533415,69.9763924 -3.15805051,63.6992346 1.01284895,54.7714238 C3.79344858,48.81955 8.59203261,43.9550202 15.408601,40.1778344 Z" id="Path-4" stroke="#000000" stroke-width="2" fill="#FEDC59"></path>
                <path d="M86.8308889,13 C88.9761341,20.2880847 79.2331888,27.1574927 76.9713681,28.9033984 C73.4361616,31.6322342 63.4218003,42.5975514 61.5677919,58.1666608 C59.7137834,73.7357702 43.8272161,77.968311 39.1391175,77.968311 C34.4510189,77.968311 23.0230547,77.4566855 14.6522436,72.3624063 C9.07170278,68.9662202 2.40422537,63.6986181 1,59.8714857 C1,59.8714857 1,60.6135692 1,60.6135692 C1,60.6135692 1.10060194,61.6463314 1.59442315,62.5508842 C4.33370132,66.7962012 9.75528639,70.9979091 15.3358272,74.3940953 C23.7066383,79.4883745 35.1346025,80 39.8227011,80 C44.5107997,80 60.397367,75.7674592 62.2513755,60.1983498 C64.1053839,44.6292404 74.1197452,33.6639231 77.6549517,30.9350873 C79.9167724,29.1891817 91.6198505,20.2326962 86.8807825,13.2869752" id="Path-4" fill="#FEE777"></path>
                <g id="Group" transform="translate(6.000000, 9.000000)">
                    <ellipse id="Oval" fill="#E7A84D" transform="translate(44.351072, 33.756971) rotate(22.000000) translate(-44.351072, -33.756971) " cx="44.3510718" cy="33.7569714" rx="3.09530972" ry="1"></ellipse>
                    <ellipse id="Oval" fill="#E7A84D" transform="translate(29.230932, 23.155405) rotate(22.000000) translate(-29.230932, -23.155405) " cx="29.2309322" cy="23.1554054" rx="3.09530972" ry="1"></ellipse>
                    <ellipse id="Oval" fill="#E7A84D" transform="translate(38.819915, 11.422297) rotate(22.000000) translate(-38.819915, -11.422297) " cx="38.8199153" cy="11.4222973" rx="3.09531034" ry="1.32006838"></ellipse>
                    <ellipse id="Oval" fill="#E7A84D" transform="translate(23.353814, 46.233108) rotate(22.000000) translate(-23.353814, -46.233108) " cx="23.3538136" cy="46.2331081" rx="3.09531034" ry="1.32006838"></ellipse>
                    <ellipse id="Oval" fill="#E7A84D" transform="translate(47.016949, 38.385135) rotate(22.000000) translate(-47.016949, -38.385135) " cx="47.0169492" cy="38.3851351" rx="3.09530972" ry="1"></ellipse>
                    <ellipse id="Oval" fill="#E7A84D" transform="translate(69.752119, 9.635135) rotate(22.000000) translate(-69.752119, -9.635135) " cx="69.7521186" cy="9.63513514" rx="3.09530972" ry="1"></ellipse>
                    <ellipse id="Oval" fill="#E7A84D" transform="translate(32.324153, 39.317568) rotate(22.000000) translate(-32.324153, -39.317568) " cx="32.3241525" cy="39.3175676" rx="3.09530972" ry="1"></ellipse>
                    <ellipse id="Oval" fill="#E7A84D" transform="translate(54.331549, 17.025098) rotate(22.000000) translate(-54.331549, -17.025098) " cx="54.3315487" cy="17.0250978" rx="1.62503827" ry="1"></ellipse>
                    <ellipse id="Oval" fill="#E7A84D" transform="translate(55.445975, 31.858108) rotate(22.000000) translate(-55.445975, -31.858108) " cx="55.4459746" cy="31.8581081" rx="1.62503827" ry="1"></ellipse>
                    <ellipse id="Oval" fill="#E7A84D" transform="translate(53.435381, 9.324324) rotate(22.000000) translate(-53.435381, -9.324324) " cx="53.4353814" cy="9.32432432" rx="1.62503827" ry="1"></ellipse>
                    <ellipse id="Oval" fill="#E7A84D" transform="translate(31.009534, 27.662162) rotate(22.000000) translate(-31.009534, -27.662162) " cx="31.0095339" cy="27.6621622" rx="1.62503827" ry="1"></ellipse>
                    <ellipse id="Oval" fill="#E7A84D" transform="translate(13.996822, 58.121622) rotate(22.000000) translate(-13.996822, -58.121622) " cx="13.996822" cy="58.1216216" rx="1.62503827" ry="1"></ellipse>
                    <ellipse id="Oval" fill="#E7A84D" transform="translate(39.051907, 48.641892) rotate(22.000000) translate(-39.051907, -48.641892) " cx="39.0519068" cy="48.6418919" rx="1.62503827" ry="1"></ellipse>
                    <ellipse id="Oval" fill="#E7A84D" transform="translate(47.094280, 1.554054) rotate(22.000000) translate(-47.094280, -1.554054) " cx="47.0942797" cy="1.55405405" rx="1.62503827" ry="1"></ellipse>
                    <ellipse id="Oval" fill="#E7A84D" transform="translate(10.439619, 42.814189) rotate(22.000000) translate(-10.439619, -42.814189) " cx="10.4396186" cy="42.8141892" rx="2.86316157" ry="1"></ellipse>
                    <ellipse id="Oval" fill="#E7A84D" transform="translate(25.685612, 53.835011) rotate(22.000000) translate(-25.685612, -53.835011) " cx="25.6856117" cy="53.8350106" rx="1.31550679" ry="1"></ellipse>
                    <ellipse id="Oval" fill="#E7A84D" transform="translate(32.710805, 46.155405) rotate(22.000000) translate(-32.710805, -46.155405) " cx="32.7108051" cy="46.1554054" rx="1.31550679" ry="1"></ellipse>
                    <ellipse id="Oval" fill="#E7A84D" transform="translate(44.310381, 20.513514) rotate(22.000000) translate(-44.310381, -20.513514) " cx="44.3103814" cy="20.5135135" rx="1.31550679" ry="1"></ellipse>
                    <ellipse id="Oval" fill="#B7600F" transform="translate(1.469280, 67.756757) rotate(35.000000) translate(-1.469280, -67.756757) " cx="1.46927966" cy="67.7567568" rx="1.31670069" ry="1"></ellipse>
                    <ellipse id="Oval" fill="#E7A84D" transform="translate(33.716102, 64.260135) rotate(22.000000) translate(-33.716102, -64.260135) " cx="33.7161017" cy="64.2601351" rx="3.09531034" ry="1.32006838"></ellipse>
                    <ellipse id="Oval" fill="#E7A84D" transform="translate(46.243644, 26.185811) rotate(22.000000) translate(-46.243644, -26.185811) " cx="46.2436441" cy="26.1858108" rx="3.09531034" ry="1.32006838"></ellipse>
                </g>
                <ellipse id="Oval" fill="#B7600F" transform="translate(67.762084, 61.689468) rotate(-65.000000) translate(-67.762084, -61.689468) " cx="67.762084" cy="61.6894679" rx="1.32427774" ry="1"></ellipse>
                <ellipse id="Oval" fill="#B7600F" transform="translate(27.690967, 85.833972) rotate(16.000000) translate(-27.690967, -85.833972) " cx="27.6909673" cy="85.8339716" rx="1.63702892" ry="1"></ellipse>
                <ellipse id="Oval" fill="#B7600F" transform="translate(47.180810, 83.185865) rotate(-16.000000) translate(-47.180810, -83.185865) " cx="47.18081" cy="83.1858648" rx="1.63702892" ry="1"></ellipse>
                <ellipse id="Oval" fill="#B7600F" transform="translate(81.794771, 35.208399) rotate(-45.000000) translate(-81.794771, -35.208399) " cx="81.7947707" cy="35.2083992" rx="1.63637116" ry="1"></ellipse>
                <ellipse id="Oval" fill="#B7600F" transform="translate(72.673524, 44.243117) rotate(-45.000000) translate(-72.673524, -44.243117) " cx="72.6735243" cy="44.2431168" rx="1.40260385" ry="1"></ellipse>
                <ellipse id="Oval" fill="#B7600F" transform="translate(15.793810, 83.129485) rotate(26.000000) translate(-15.793810, -83.129485) " cx="15.7938099" cy="83.1294846" rx="2.88397145" ry="1"></ellipse>
                <ellipse id="Oval" fill="#B7600F" transform="translate(31.744855, 91.130185) rotate(11.000000) translate(-31.744855, -91.130185) " cx="31.7448546" cy="91.1301854" rx="1.32526358" ry="1"></ellipse>
                <ellipse id="Oval" fill="#B7600F" transform="translate(40.008548, 97.205254) rotate(-4.000000) translate(-40.008548, -97.205254) " cx="40.0085479" cy="97.2052541" rx="1.3253032" ry="1"></ellipse>
                <ellipse id="Oval" fill="#B7600F" transform="translate(57.471447, 85.833972) rotate(-42.000000) translate(-57.471447, -85.833972) " cx="57.471447" cy="85.8339716" rx="1.32474703" ry="1"></ellipse>
                <ellipse id="Oval" fill="#B7600F" transform="translate(70.100865, 52.810521) rotate(-64.000000) translate(-70.100865, -52.810521) " cx="70.1008651" cy="52.8105213" rx="1.32429477" ry="1"></ellipse>
                <ellipse id="Oval" fill="#B7600F" transform="translate(44.842029, 91.363842) rotate(-12.000000) translate(-44.842029, -91.363842) " cx="44.8420289" cy="91.3638419" rx="2.88437857" ry="1"></ellipse>
                <ellipse id="Oval" fill="#B7600F" transform="translate(22.077893, 91.285956) rotate(11.000000) translate(-22.077893, -91.285956) " cx="22.0778926" cy="91.2859564" rx="1.32526358" ry="1"></ellipse>
                <ellipse id="Oval" fill="#B7600F" transform="translate(78.208640, 45.722941) rotate(-50.000000) translate(-78.208640, -45.722941) " cx="78.2086397" cy="45.7229412" rx="2.88289272" ry="1"></ellipse>
                <ellipse id="Oval" fill="#B7600F" transform="translate(85.069064, 39.102674) rotate(-35.000000) translate(-85.069064, -39.102674) " cx="85.0690643" cy="39.102674" rx="1.32489614" ry="1"></ellipse>
                <ellipse id="Oval" fill="#B7600F" transform="translate(28.938317, 97.672567) rotate(16.000000) translate(-28.938317, -97.672567) " cx="28.9383172" cy="97.672567" rx="1.63702892" ry="1"></ellipse>
                <ellipse id="Oval" fill="#B7600F" transform="translate(8.980718, 84.120491) rotate(32.000000) translate(-8.980718, -84.120491) " cx="8.98071826" cy="84.1204907" rx="1.63671119" ry="1"></ellipse>
            </g>
        </g>
    </g>
</svg>