<?xml version="1.0" encoding="UTF-8"?>
<svg width="54px" height="102px" viewBox="0 0 54 102" version="1.1" xmlns="http://www.w3.org/2000/svg" xmlns:xlink="http://www.w3.org/1999/xlink">
    <title>spray 6</title>
    <g id="Design" stroke="none" stroke-width="1" fill="none" fill-rule="evenodd">
        <g id="Tablet" transform="translate(-680.000000, -1919.000000)">
            <g id="spray-6" transform="translate(681.000000, 1921.000000)">
                <path d="M14,10.1519477 C14,10.5280999 14.4071802,10.8314005 14.9066121,10.8314005 C15.051352,10.8314005 15.1881391,10.8046387 15.3090207,10.7600357 C15.3312883,10.7749034 15.353556,10.7882843 15.3758237,10.8016652 C15.3615087,10.8655962 15.3567371,10.9325007 15.3567371,11.0023788 C15.3567371,11.4989593 15.705067,11.9033601 16.137696,11.9033601 C16.2379005,11.9033601 16.3349239,11.8795718 16.422404,11.8409158 C16.591002,11.9405293 16.791411,12 17.006135,12 C17.5453306,12 17.9922745,11.6283081 18.0702113,11.1436218 C18.1147466,11.1525424 18.159282,11.1570027 18.2069984,11.1570027 C18.4742104,11.1570027 18.7239264,11.014273 18.9243354,10.7749034 C19.062713,10.6782635 19.1438309,10.5578353 19.1454215,10.4299732 C19.1995001,10.3244127 19.2440354,10.2114184 19.280618,10.0895034 C19.6448534,10.0463872 19.9279709,9.86946179 19.9820495,9.64793339 C20.0695297,9.66874814 20.1681436,9.67915552 20.2699387,9.67915552 C20.6723472,9.67915552 21,9.51115076 21,9.30597681 C21,9.14094558 20.7932288,9.00416295 20.5069302,8.95212608 C20.5785049,8.85697294 20.6182686,8.75141243 20.6182686,8.63841808 C20.6182686,8.2176628 20.0520336,7.87719298 19.3506021,7.87719298 C19.2551693,7.87719298 19.1597364,7.88314005 19.0706658,7.8950342 C18.8511702,7.53374963 18.5441945,7.30776093 18.2069984,7.30776093 C17.8634401,7.30776093 17.5516928,7.5396967 17.3337878,7.91138864 C17.2987957,7.40291406 16.7802772,7 16.1472393,7 C15.4887526,7 14.9575097,7.43264942 14.9575097,7.96491228 C14.9575097,8.05263158 14.970234,8.13589057 14.9956828,8.21468927 C14.5471484,8.37972049 14.2433538,8.68599465 14.2433538,9.03687184 C14.2433538,9.22717811 14.3324244,9.40410348 14.4835265,9.55278026 C14.1972279,9.66577461 14,9.89176331 14,10.1519477" id="smoke-6" fill-opacity="0.5" fill="#FFFFFF"></path>
                <path d="M45.5234431,94.7025204 C49.7094523,94.0470776 52.5663271,90.1612386 51.9048155,86.02319 L41.8920038,23.4691857 C41.8920038,23.4691857 38.9740193,7.29908126 18.9193688,10.3935563 C-1.1337539,13.4895415 0.0120515319,31.0007361 0.0120515319,31.0007361 L9.86903369,92.5972504 C10.5320731,96.7368092 14.4629496,99.5609518 18.6489587,98.9055091 L45.5234431,94.7025204 Z" id="Fill-127" stroke="#000000" stroke-width="2" fill="#474444"></path>
                <polygon id="Fill-131" stroke="#000000" stroke-width="2" fill="#FEFEFE" points="48 64.4579195 6.04933463 71 1 39.5420805 42.9491399 33"></polygon>
                <path d="M23,9.4977765 L13.5022235,11 C14.9697317,7.82197676 14.3764166,4.07272988 12,1.50380146 L21.4977765,0 L23,9.4977765 Z" id="Fill-135" stroke="#000000" stroke-width="2" fill="#EC1D24"></path>
                <path d="M36.850827,49.7038604 C37.8863889,55.9758215 33.4201409,61.8659981 26.875018,62.856855 C23.2241975,63.4109624 19.6973963,62.3235452 17.1131424,60.1635662 C15.0637222,58.4537066 13.6080447,56.0694107 13.149173,53.2973881 C12.1136111,47.025427 16.5798591,41.1352504 23.124982,40.142908 C29.6701048,39.1505655 35.8152652,43.4318994 36.850827,49.7038604 Z" id="Stroke-139" stroke="#EC1D24" stroke-width="2"></path>
                <path d="M23,48.8469914 C23,48.8469914 25.1298429,42.8209075 29.7424113,43.0040934 C34.3549797,43.1887448 24.9385021,50.105845 23,48.8469914 Z" id="Stroke-141" stroke="#231F20"></path>
                <path d="M24,49.8943801 C24,49.8943801 33.0710218,52.486922 34.8148983,49.7320927 C36.5587748,46.9772635 25.4431533,47.8711968 24,49.8943801 Z" id="Stroke-143" stroke="#231F20"></path>
                <path d="M25.1023958,53.3719051 C25.1023958,53.3719051 31.581491,59.0836198 33.5413321,57.8165523 C35.5042717,56.5510095 30.8161459,52.768104 26.1311187,51.3378881 C26.1311187,51.3378881 25.5966166,47.9209226 21.6707374,48.224348 C21.6707374,48.224348 21.6552446,46.2726675 18.9920297,46.4419148 C18.9920297,46.4419148 17.9106312,44.0709281 15.9275509,45.4096589 C14.0281318,46.6904491 15.7013558,48.7625848 15.7013558,48.7625848 C15.7013558,48.7625848 10.4508409,51.6352145 10,52.6522229 C10,52.6522229 16.0344514,49.7933161 16.6650089,49.6682865 C16.6650089,49.6682865 17.1452862,51.0802053 18.2793602,51.3256901 C19.411885,51.5711749 20.1911736,51.1503439 20.1911736,51.1503439 C20.1911736,51.1503439 21.1269396,53.7744392 25.1023958,53.3719051" id="Fill-145" fill="#010202"></path>
                <path d="M18.1568946,47.830873 C18.5262486,47.0904666 19.4267397,46.7881976 20.1685002,47.1576375 C20.9102606,47.5270774 21.2109331,48.4277779 20.8431054,49.1681843 C20.4737514,49.9101174 19.5732603,50.2123864 18.8314998,49.8414199 C18.0897394,49.4735066 17.7890669,48.572806 18.1568946,47.830873" id="Fill-147" fill="#FEFEFE"></path>
                <path d="M18.6110542,48.8058222 C18.7190542,48.5918222 18.9810542,48.5038222 19.1950542,48.6098222 C19.4090542,48.7178222 19.4950542,48.9798222 19.3910542,49.1938222 C19.2830542,49.4098222 19.0210542,49.4958222 18.8070542,49.3898222 C18.5910542,49.2818222 18.5030542,49.0198222 18.6110542,48.8058222" id="Fill-149" fill="#010202"></path>
                <path d="M19,47.1245944 C19,47.1245944 17.6940181,47.3473437 17.5477599,49 C17.5477599,49 15.9551711,48.7470717 16.0009692,47.5025497 C16.0172201,46.9765739 16.3481476,46.5109559 16.8149918,46.247968 C17.4221848,45.9045029 18.3558732,45.7076212 19,47.1245944" id="Fill-151" fill="#FEFEFE"></path>
                <path d="M16.6101536,46.8049458 C16.7181536,46.5909458 16.9801536,46.5049458 17.1941536,46.6089458 C17.4081536,46.7169458 17.4961536,46.9789458 17.3901536,47.1929458 C17.2821536,47.4089458 17.0221536,47.4969458 16.8081536,47.3889458 C16.5901536,47.2809458 16.5041536,47.0189458 16.6101536,46.8049458" id="Fill-153" fill="#010202"></path>
                <line x1="32" y1="43" x2="17" y2="61" id="Stroke-155" stroke="#EC1D24" stroke-width="2"></line>
            </g>
        </g>
    </g>
</svg>